<svg width="21" height="21" viewBox="0 0 21 21" fill="none" xmlns="http://www.w3.org/2000/svg">
<path d="M19.8859 17.8047C20.2375 18.1953 20.2375 18.7812 19.8469 19.1328L18.7531 20.2266C18.4016 20.6172 17.8156 20.6172 17.425 20.2266L13.5578 16.3594C13.3625 16.1641 13.2844 15.9297 13.2844 15.6953V15.0312C11.8781 16.125 10.1594 16.75 8.28436 16.75C3.79218 16.75 0.159363 13.1172 0.159363 8.625C0.159363 4.17188 3.79218 0.5 8.28436 0.5C12.7375 0.5 16.4094 4.17188 16.4094 8.625C16.4094 10.5391 15.7453 12.2578 14.6906 13.625H15.3156C15.55 13.625 15.7844 13.7422 15.9797 13.8984L19.8859 17.8047ZM8.28436 13.625C11.0187 13.625 13.2844 11.3984 13.2844 8.625C13.2844 5.89062 11.0187 3.625 8.28436 3.625C5.51093 3.625 3.28436 5.89062 3.28436 8.625C3.28436 11.3984 5.51093 13.625 8.28436 13.625Z" fill="#06631A"/>
</svg>
